<svg width="48" height="48" viewBox="0 0 48 48" fill="none" xmlns="http://www.w3.org/2000/svg">
<circle cx="24" cy="24" r="24" fill="#FA434B"/>
<path fill-rule="evenodd" clip-rule="evenodd" d="M23.7949 16C21.603 16 21.3301 16.0093 20.4681 16.0493C17.5366 16.1827 15.9094 17.7947 15.775 20.7013C15.736 21.556 15.7266 21.828 15.7266 24C15.7266 26.1733 15.736 26.4453 15.775 27.2987C15.9094 30.204 17.5366 31.8187 20.4681 31.952C21.3301 31.9907 21.603 32 23.7949 32C25.9868 32 26.2612 31.9907 27.1231 31.952C30.0493 31.8187 31.6831 30.2067 31.8149 27.2987C31.8539 26.4453 31.8633 26.1733 31.8633 24C31.8633 21.828 31.8539 21.556 31.8149 20.7013C31.6831 17.7987 30.0547 16.1813 27.1231 16.0493C26.2612 16.0093 25.9868 16 23.7949 16ZM23.795 17.4426C25.9492 17.4426 26.2047 17.4506 27.0559 17.4893C29.2438 17.588 30.2631 18.616 30.364 20.768C30.4016 21.612 30.4097 21.864 30.4097 24C30.4097 26.136 30.4016 26.3893 30.364 27.232C30.2631 29.3826 29.2451 30.4133 27.0559 30.512C26.2047 30.5493 25.9506 30.5586 23.795 30.5586C21.6407 30.5586 21.3852 30.5506 20.5353 30.512C18.3434 30.412 17.3282 29.38 17.2273 27.232C17.1896 26.3893 17.1802 26.136 17.1802 24C17.1802 21.864 17.1896 21.6106 17.2273 20.768C17.3268 18.6146 18.3461 17.5866 20.5353 17.488C21.3852 17.4493 21.6407 17.4426 23.795 17.4426ZM19.6519 24C19.6519 21.7306 21.5076 19.892 23.795 19.892C26.0824 19.892 27.9381 21.732 27.9381 24C27.9381 26.2693 26.0824 28.108 23.795 28.108C21.5076 28.108 19.6519 26.2693 19.6519 24ZM23.7948 26.6667C22.3088 26.6667 21.1053 25.4734 21.1053 24C21.1053 22.528 22.3088 21.3334 23.7948 21.3334C25.2794 21.3334 26.4856 22.5267 26.4856 24C26.4856 25.4734 25.2794 26.6667 23.7948 26.6667ZM27.1326 19.7306C27.1326 19.2 27.5669 18.7706 28.1008 18.7706C28.6373 18.7706 29.0703 19.2 29.0703 19.7306C29.0703 20.2613 28.636 20.6906 28.1008 20.6906C27.5656 20.6906 27.1326 20.26 27.1326 19.7306Z" fill="white"/>
</svg>
