<svg width="48" height="48" viewBox="0 0 48 48" fill="none" xmlns="http://www.w3.org/2000/svg">
<circle cx="24" cy="24" r="24" fill="#FA434B"/>
<path d="M32 19.5395C31.412 19.8008 30.7787 19.9767 30.1147 20.0567C30.7933 19.6502 31.312 19.0077 31.5587 18.2413C30.924 18.6171 30.2213 18.8904 29.4733 19.037C28.876 18.3985 28.0213 18 27.0787 18C24.9587 18 23.4013 19.9767 23.88 22.0294C21.1533 21.8921 18.7333 20.5859 17.1147 18.6011C16.2547 20.0754 16.6693 22.0054 18.1307 22.9825C17.5933 22.9651 17.088 22.8172 16.6453 22.5719C16.6093 24.0915 17.7 25.5137 19.2787 25.8309C18.8173 25.9562 18.3107 25.9855 17.796 25.8869C18.2133 27.1905 19.428 28.1382 20.8627 28.1649C19.48 29.2472 17.7427 29.7311 16 29.5258C17.4533 30.4575 19.1773 31 21.0307 31C27.1267 31 30.5693 25.8536 30.3613 21.2377C31.004 20.7765 31.56 20.198 32 19.5395Z" fill="white"/>
</svg>
